<svg xmlns="http://www.w3.org/2000/svg" xmlns:xlink="http://www.w3.org/1999/xlink" width="1249" height="907" viewBox="-50 -50 1249 907"><title>Medic</title><style type="text/css">
path, polyline, polygon {stroke-linejoin:round;}
path, polyline, polygon, line {stroke-linecap:round;}
rect, circle, ellipse, polyline, line, polygon, path {shape-rendering:crispEdges;}
</style>
<rect x="-50" y="-50" width="1249" height="907" fill="#FFFFFF" stroke="none"/><g><g><g display="none"><text x="572.640625" y="-3" fill="#000080" font-family="Arial" font-size="7pt" font-weight="" font-style="" dominant-baseline="" text-anchor="start">NO</text></g><g display="none"><text x="572.6484375" y="-13.703125" fill="#000080" font-family="Arial" font-size="7pt" font-weight="" font-style="" dominant-baseline="" text-anchor="start">.</text></g><path d="M 206 10 L 206 0 M 206 796 L 206 806 M 402 10 L 402 0 M 402 796 L 402 806 M 598 10 L 598 0 M 598 796 L 598 806 M 794 10 L 794 0 M 794 796 L 794 806 M 990 10 L 990 0 M 990 796 L 990 806 M 10 206 L 0 206 M 1139 206 L 1149 206 M 10 402 L 0 402 M 1139 402 L 1149 402 M 10 598 L 0 598 M 1139 598 L 1149 598 M 10 794 L 0 794 M 1139 794 L 1149 794" stroke="#880000" stroke-width="1" fill="none"/><g><text x="1.5" y="108" fill="#880000" font-family="Verdana" font-size="7pt" font-weight="" font-style="" dominant-baseline="" text-anchor="start" type="comment">A</text></g><g><text x="1140.5" y="108" fill="#880000" font-family="Verdana" font-size="7pt" font-weight="" font-style="" dominant-baseline="" text-anchor="start" type="comment">A</text></g><g><text x="1.5" y="304" fill="#880000" font-family="Verdana" font-size="7pt" font-weight="" font-style="" dominant-baseline="" text-anchor="start" type="comment">B</text></g><g><text x="1140.5" y="304" fill="#880000" font-family="Verdana" font-size="7pt" font-weight="" font-style="" dominant-baseline="" text-anchor="start" type="comment">B</text></g><g><text x="1.5" y="500" fill="#880000" font-family="Verdana" font-size="7pt" font-weight="" font-style="" dominant-baseline="" text-anchor="start" type="comment">C</text></g><g><text x="1140.5" y="500" fill="#880000" font-family="Verdana" font-size="7pt" font-weight="" font-style="" dominant-baseline="" text-anchor="start" type="comment">C</text></g><g><text x="1.5" y="696" fill="#880000" font-family="Verdana" font-size="7pt" font-weight="" font-style="" dominant-baseline="" text-anchor="start" type="comment">D</text></g><g><text x="1140.5" y="696" fill="#880000" font-family="Verdana" font-size="7pt" font-weight="" font-style="" dominant-baseline="" text-anchor="start" type="comment">D</text></g><g><text x="108" y="8.5" fill="#880000" font-family="Verdana" font-size="7pt" font-weight="" font-style="" dominant-baseline="" text-anchor="start" type="comment">1</text></g><g><text x="108" y="804.5" fill="#880000" font-family="Verdana" font-size="7pt" font-weight="" font-style="" dominant-baseline="" text-anchor="start" type="comment">1</text></g><g><text x="304" y="8.5" fill="#880000" font-family="Verdana" font-size="7pt" font-weight="" font-style="" dominant-baseline="" text-anchor="start" type="comment">2</text></g><g><text x="304" y="804.5" fill="#880000" font-family="Verdana" font-size="7pt" font-weight="" font-style="" dominant-baseline="" text-anchor="start" type="comment">2</text></g><g><text x="500" y="8.5" fill="#880000" font-family="Verdana" font-size="7pt" font-weight="" font-style="" dominant-baseline="" text-anchor="start" type="comment">3</text></g><g><text x="500" y="804.5" fill="#880000" font-family="Verdana" font-size="7pt" font-weight="" font-style="" dominant-baseline="" text-anchor="start" type="comment">3</text></g><g><text x="696" y="8.5" fill="#880000" font-family="Verdana" font-size="7pt" font-weight="" font-style="" dominant-baseline="" text-anchor="start" type="comment">4</text></g><g><text x="696" y="804.5" fill="#880000" font-family="Verdana" font-size="7pt" font-weight="" font-style="" dominant-baseline="" text-anchor="start" type="comment">4</text></g><g><text x="892" y="8.5" fill="#880000" font-family="Verdana" font-size="7pt" font-weight="" font-style="" dominant-baseline="" text-anchor="start" type="comment">5</text></g><g><text x="892" y="804.5" fill="#880000" font-family="Verdana" font-size="7pt" font-weight="" font-style="" dominant-baseline="" text-anchor="start" type="comment">5</text></g><rect x="10" y="10" width="1129" height="786" stroke="#880000" stroke-width="1" fill="none"/><rect x="0" y="0" width="1149" height="806" stroke="#880000" stroke-width="1" fill="none"/><rect x="739" y="716" width="400" height="80" stroke="#880000" stroke-width="1" fill="none"/><polyline points="739 756 1139 756" stroke="#880000" stroke-width="1" fill="none" stroke-linecap="round"/><polyline points="739 776 1139 776" stroke="#880000" stroke-width="1" fill="none" stroke-linecap="round"/><polyline points="1059 716 1059 756" stroke="#880000" stroke-width="1" fill="none" stroke-linecap="round"/><polyline points="1019 756 1019 776" stroke="#880000" stroke-width="1" fill="none" stroke-linecap="round"/><polyline points="934 776 934 796" stroke="#880000" stroke-width="1" fill="none" stroke-linecap="round"/><g><text x="744" y="728" fill="#880000" font-family="Verdana" font-size="8pt" font-weight="" font-style="" dominant-baseline="" text-anchor="start" type="comment">TITLE:</text></g><g><text x="749.02" y="746.01" fill="#0000FF" font-family="Verdana" font-size="10pt" font-weight="" font-style="" dominant-baseline="" type="comment">Medic</text></g><g><text x="1065" y="742" fill="#880000" font-family="Verdana" font-size="8pt" font-weight="" font-style="" dominant-baseline="" text-anchor="start" type="comment">REV:</text></g><g><text x="1096" y="743" fill="#0000FF" font-family="Verdana" font-size="9pt" font-weight="" font-style="" dominant-baseline="" text-anchor="start" type="comment">1.0</text></g><g><text x="744" y="771" fill="#880000" font-family="Verdana" font-size="8pt" font-weight="" font-style="" dominant-baseline="" text-anchor="start" type="comment">Date:</text></g><g><text x="794" y="771" fill="#0000FF" font-family="Verdana" font-size="9pt" font-weight="" font-style="" dominant-baseline="" text-anchor="start" type="comment">2017-11-01</text></g><g><text x="1024" y="771" fill="#880000" font-family="Verdana" font-size="8pt" font-weight="" font-style="" dominant-baseline="" text-anchor="start" type="comment">Sheet:</text></g><g><text x="1069" y="771" fill="#0000FF" font-family="Verdana" font-size="9pt" font-weight="" font-style="" dominant-baseline="" text-anchor="start" type="comment">1/1</text></g><g><text x="744" y="791" fill="#880000" font-family="Verdana" font-size="8pt" font-weight="" font-style="" dominant-baseline="" text-anchor="start" type="comment">EasyEDA V4.7.3</text></g><g><text x="944" y="791" fill="#880000" font-family="Verdana" font-size="8pt" font-weight="" font-style="" dominant-baseline="" text-anchor="start" type="comment">Drawn By:</text></g><g><text x="1009" y="791" fill="#0000FF" font-family="Verdana" font-size="9pt" font-weight="" font-style="" dominant-baseline="" text-anchor="start" type="comment">chr15m</text></g></g><ellipse cx="250" cy="150" rx="75" ry="75" stroke="#000000" stroke-width="1" fill="none"/><g eelibtitle="Header-Male-2.54_1x1" package-default="HDR-1X1/2.54"><g><text x="304.796875" y="172" font-family="Arial" font-size="7pt" fill="#000080" text-anchor="start">+</text></g><g><text x="305.796875" y="163" font-family="Arial" font-size="7pt" fill="#000080" text-anchor="start">P1</text></g><rect x="290" y="175" width="20" height="10" stroke="#880000" stroke-width="1" fill="#EFEFEF"/><g><path d="M 330 180 h -20" fill="none" stroke="#000000" stroke-width="1"/><text x="305" y="183" font-family="Verdana" font-size="7pt" fill="#000000" text-anchor="end">1</text><text x="315" y="179" font-family="Verdana" font-size="7pt" fill="#000000" text-anchor="start" display="none">1</text><circle cx="313" cy="180" r="3" stroke="#000000" fill="none" stroke-width="1" display="none"/><path d="M 310 177 L 307 180 L 310 183" fill="none" stroke="#000000" stroke-width="1" display="none"/></g></g><g eelibtitle="Header-Male-2.54_1x1" package-default="HDR-1X1/2.54"><g><text x="304.390625" y="142" font-family="Arial" font-size="7pt" fill="#000080" text-anchor="start">Data</text></g><g><text x="305.390625" y="133" font-family="Arial" font-size="7pt" fill="#000080" text-anchor="start">P2</text></g><rect x="290" y="145" width="20" height="10" stroke="#880000" stroke-width="1" fill="#EFEFEF"/><g><path d="M 330 150 h -20" fill="none" stroke="#000000" stroke-width="1"/><text x="305" y="153" font-family="Verdana" font-size="7pt" fill="#000000" text-anchor="end">1</text><text x="315" y="149" font-family="Verdana" font-size="7pt" fill="#000000" text-anchor="start" display="none">1</text><circle cx="313" cy="150" r="3" stroke="#000000" fill="none" stroke-width="1" display="none"/><path d="M 310 147 L 307 150 L 310 153" fill="none" stroke="#000000" stroke-width="1" display="none"/></g></g><g eelibtitle="Header-Male-2.54_1x1" package-default="HDR-1X1/2.54"><g><text x="304.390625" y="112" font-family="Arial" font-size="7pt" fill="#000080" text-anchor="start">-</text></g><g><text x="305.390625" y="103" font-family="Arial" font-size="7pt" fill="#000080" text-anchor="start">P3</text></g><rect x="290" y="115" width="20" height="10" stroke="#880000" stroke-width="1" fill="#EFEFEF"/><g><path d="M 330 120 h -20" fill="none" stroke="#000000" stroke-width="1"/><text x="305" y="123" font-family="Verdana" font-size="7pt" fill="#000000" text-anchor="end">1</text><text x="315" y="119" font-family="Verdana" font-size="7pt" fill="#000000" text-anchor="start" display="none">1</text><circle cx="313" cy="120" r="3" stroke="#000000" fill="none" stroke-width="1" display="none"/><path d="M 310 117 L 307 120 L 310 123" fill="none" stroke="#000000" stroke-width="1" display="none"/></g></g><g eelibtitle="Header-Male-2.54_1x1" package-default="HDR-1X1/2.54"><g><text x="213.390625" y="187" font-family="Arial" font-size="7pt" fill="#000080" text-anchor="start">+</text></g><g><text x="214.390625" y="178" font-family="Arial" font-size="7pt" fill="#000080" text-anchor="start">P4</text></g><rect x="215" y="190" width="10" height="20" stroke="#880000" stroke-width="1" fill="#EFEFEF"/><g><path d="M 220 230 v -20" fill="none" stroke="#000000" stroke-width="1"/><text x="223" y="205" font-family="Verdana" font-size="7pt" fill="#000000" text-anchor="start" transform="rotate(270,223,205)">1</text><text x="219" y="215" font-family="Verdana" font-size="7pt" fill="#000000" text-anchor="end" display="none" transform="rotate(270,219,215)">1</text><circle cx="220" cy="213" r="3" stroke="#000000" fill="none" stroke-width="1" display="none"/><path d="M 223 210 L 220 207 L 217 210" fill="none" stroke="#000000" stroke-width="1" display="none"/></g></g><g eelibtitle="Header-Male-2.54_1x1" package-default="HDR-1X1/2.54"><g><text x="243.390625" y="187" font-family="Arial" font-size="7pt" fill="#000080" text-anchor="start">Data</text></g><g><text x="244.390625" y="178" font-family="Arial" font-size="7pt" fill="#000080" text-anchor="start">P5</text></g><rect x="245" y="190" width="10" height="20" stroke="#880000" stroke-width="1" fill="#EFEFEF"/><g><path d="M 250 230 v -20" fill="none" stroke="#000000" stroke-width="1"/><text x="253" y="205" font-family="Verdana" font-size="7pt" fill="#000000" text-anchor="start" transform="rotate(270,253,205)">1</text><text x="249" y="215" font-family="Verdana" font-size="7pt" fill="#000000" text-anchor="end" display="none" transform="rotate(270,249,215)">1</text><circle cx="250" cy="213" r="3" stroke="#000000" fill="none" stroke-width="1" display="none"/><path d="M 253 210 L 250 207 L 247 210" fill="none" stroke="#000000" stroke-width="1" display="none"/></g></g><g eelibtitle="Header-Male-2.54_1x1" package-default="HDR-1X1/2.54"><g><text x="273.390625" y="187" font-family="Arial" font-size="7pt" fill="#000080" text-anchor="start">-</text></g><g><text x="274.390625" y="178" font-family="Arial" font-size="7pt" fill="#000080" text-anchor="start">P6</text></g><rect x="275" y="190" width="10" height="20" stroke="#880000" stroke-width="1" fill="#EFEFEF"/><g><path d="M 280 230 v -20" fill="none" stroke="#000000" stroke-width="1"/><text x="283" y="205" font-family="Verdana" font-size="7pt" fill="#000000" text-anchor="start" transform="rotate(270,283,205)">1</text><text x="279" y="215" font-family="Verdana" font-size="7pt" fill="#000000" text-anchor="end" display="none" transform="rotate(270,279,215)">1</text><circle cx="280" cy="213" r="3" stroke="#000000" fill="none" stroke-width="1" display="none"/><path d="M 283 210 L 280 207 L 277 210" fill="none" stroke="#000000" stroke-width="1" display="none"/></g></g><g><text x="201" y="112" font-family="Verdana" font-size="9pt" fill="#0000FF" text-anchor="start" type="comment"><tspan x="201" dy="0" xml:space="preserve">Neopixel ring</tspan><tspan x="201" dy="1em" xml:space="preserve"> </tspan><tspan x="201" dy="1em" xml:space="preserve">( 16 pin )</tspan><tspan x="201" dy="1em" xml:space="preserve"> </tspan><tspan x="201" dy="1em" xml:space="preserve">facing up</tspan></text></g><g><g><text x="962" y="372" font-family="Arial" font-size="7pt" fill="#000080" text-anchor="start">TEENSY2.0</text></g><g><text x="963" y="363" font-family="Arial" font-size="7pt" fill="#000080" text-anchor="start">U1</text></g><rect x="800" y="320" width="160" height="80" stroke="#8D2323" stroke-width="1" fill="none"/><g><path d="M 940 420 v -20" fill="none" stroke="#8D2323" stroke-width="1"/><text x="943" y="397" font-family="Verdana" font-size="5.5pt" fill="#8D2323" text-anchor="start" transform="rotate(270,943,397)">VCC</text><text x="939" y="406" font-family="Verdana" font-size="7pt" fill="#8D2323" text-anchor="end" transform="rotate(270,939,406)">29</text><circle cx="940" cy="403" r="3" stroke="#8D2323" fill="none" stroke-width="1" display="none"/><path d="M 943 400 L 940 397 L 937 400" fill="none" stroke="#8D2323" stroke-width="1" display="none"/></g><g><path d="M 930 420 v -20" fill="none" stroke="#8D2323" stroke-width="1"/><text x="933" y="397" font-family="Verdana" font-size="5.5pt" fill="#8D2323" text-anchor="start" transform="rotate(270,933,397)">PF0</text><text x="929" y="406" font-family="Verdana" font-size="7pt" fill="#8D2323" text-anchor="end" transform="rotate(270,929,406)">28</text><circle cx="930" cy="403" r="3" stroke="#8D2323" fill="none" stroke-width="1" display="none"/><path d="M 933 400 L 930 397 L 927 400" fill="none" stroke="#8D2323" stroke-width="1" display="none"/></g><g><path d="M 920 420 v -20" fill="none" stroke="#8D2323" stroke-width="1"/><text x="923" y="397" font-family="Verdana" font-size="5.5pt" fill="#8D2323" text-anchor="start" transform="rotate(270,923,397)">PF1</text><text x="919" y="406" font-family="Verdana" font-size="7pt" fill="#8D2323" text-anchor="end" transform="rotate(270,919,406)">27</text><circle cx="920" cy="403" r="3" stroke="#8D2323" fill="none" stroke-width="1" display="none"/><path d="M 923 400 L 920 397 L 917 400" fill="none" stroke="#8D2323" stroke-width="1" display="none"/></g><g><path d="M 910 420 v -20" fill="none" stroke="#8D2323" stroke-width="1"/><text x="913" y="397" font-family="Verdana" font-size="5.5pt" fill="#8D2323" text-anchor="start" transform="rotate(270,913,397)">PF4</text><text x="909" y="406" font-family="Verdana" font-size="7pt" fill="#8D2323" text-anchor="end" transform="rotate(270,909,406)">26</text><circle cx="910" cy="403" r="3" stroke="#8D2323" fill="none" stroke-width="1" display="none"/><path d="M 913 400 L 910 397 L 907 400" fill="none" stroke="#8D2323" stroke-width="1" display="none"/></g><g><path d="M 870 420 v -20" fill="none" stroke="#8D2323" stroke-width="1"/><text x="873" y="397" font-family="Verdana" font-size="5.5pt" fill="#8D2323" text-anchor="start" transform="rotate(270,873,397)">PB6</text><text x="869" y="406" font-family="Verdana" font-size="7pt" fill="#8D2323" text-anchor="end" transform="rotate(270,869,406)">22</text><circle cx="870" cy="403" r="3" stroke="#8D2323" fill="none" stroke-width="1" display="none"/><path d="M 873 400 L 870 397 L 867 400" fill="none" stroke="#8D2323" stroke-width="1" display="none"/></g><g><path d="M 900 420 v -20" fill="none" stroke="#8D2323" stroke-width="1"/><text x="903" y="397" font-family="Verdana" font-size="5.5pt" fill="#8D2323" text-anchor="start" transform="rotate(270,903,397)">PF5</text><text x="899" y="406" font-family="Verdana" font-size="7pt" fill="#8D2323" text-anchor="end" transform="rotate(270,899,406)">25</text><circle cx="900" cy="403" r="3" stroke="#8D2323" fill="none" stroke-width="1" display="none"/><path d="M 903 400 L 900 397 L 897 400" fill="none" stroke="#8D2323" stroke-width="1" display="none"/></g><g><path d="M 930 300 v 20" fill="none" stroke="#8D2323" stroke-width="1"/><text x="933" y="323" font-family="Verdana" font-size="5.5pt" fill="#8D2323" text-anchor="end" transform="rotate(270,933,323)">PB0</text><text x="929" y="314" font-family="Verdana" font-size="7pt" fill="#8D2323" text-anchor="start" transform="rotate(270,929,314)">2</text><circle cx="930" cy="317" r="3" stroke="#8D2323" fill="none" stroke-width="1" display="none"/><path d="M 927 320 L 930 323 L 933 320" fill="none" stroke="#8D2323" stroke-width="1" display="none"/></g><g><path d="M 860 420 v -20" fill="none" stroke="#8D2323" stroke-width="1"/><text x="863" y="397" font-family="Verdana" font-size="5.5pt" fill="#8D2323" text-anchor="start" transform="rotate(270,863,397)">PB5</text><text x="859" y="406" font-family="Verdana" font-size="7pt" fill="#8D2323" text-anchor="end" transform="rotate(270,859,406)">21</text><circle cx="860" cy="403" r="3" stroke="#8D2323" fill="none" stroke-width="1" display="none"/><path d="M 863 400 L 860 397 L 857 400" fill="none" stroke="#8D2323" stroke-width="1" display="none"/></g><g><path d="M 890 420 v -20" fill="none" stroke="#8D2323" stroke-width="1"/><text x="893" y="397" font-family="Verdana" font-size="5.5pt" fill="#8D2323" text-anchor="start" transform="rotate(270,893,397)">PF6</text><text x="889" y="406" font-family="Verdana" font-size="7pt" fill="#8D2323" text-anchor="end" transform="rotate(270,889,406)">24</text><circle cx="890" cy="403" r="3" stroke="#8D2323" fill="none" stroke-width="1" display="none"/><path d="M 893 400 L 890 397 L 887 400" fill="none" stroke="#8D2323" stroke-width="1" display="none"/></g><g><path d="M 780 350 h 20" fill="none" stroke="#8D2323" stroke-width="1"/><text x="803" y="353" font-family="Verdana" font-size="5.5pt" fill="#8D2323" text-anchor="start">VCC</text><text x="794" y="349" font-family="Verdana" font-size="7pt" fill="#8D2323" text-anchor="end">14</text><circle cx="797" cy="350" r="3" stroke="#8D2323" fill="none" stroke-width="1" display="none"/><path d="M 800 353 L 803 350 L 800 347" fill="none" stroke="#8D2323" stroke-width="1" display="none"/></g><g><path d="M 850 420 v -20" fill="none" stroke="#8D2323" stroke-width="1"/><text x="853" y="397" font-family="Verdana" font-size="5.5pt" fill="#8D2323" text-anchor="start" transform="rotate(270,853,397)">PB4</text><text x="849" y="406" font-family="Verdana" font-size="7pt" fill="#8D2323" text-anchor="end" transform="rotate(270,849,406)">20</text><circle cx="850" cy="403" r="3" stroke="#8D2323" fill="none" stroke-width="1" display="none"/><path d="M 853 400 L 850 397 L 847 400" fill="none" stroke="#8D2323" stroke-width="1" display="none"/></g><g><path d="M 880 420 v -20" fill="none" stroke="#8D2323" stroke-width="1"/><text x="883" y="397" font-family="Verdana" font-size="5.5pt" fill="#8D2323" text-anchor="start" transform="rotate(270,883,397)">PF7</text><text x="879" y="406" font-family="Verdana" font-size="7pt" fill="#8D2323" text-anchor="end" transform="rotate(270,879,406)">23</text><circle cx="880" cy="403" r="3" stroke="#8D2323" fill="none" stroke-width="1" display="none"/><path d="M 883 400 L 880 397 L 877 400" fill="none" stroke="#8D2323" stroke-width="1" display="none"/></g><g><path d="M 780 340 h 20" fill="none" stroke="#8D2323" stroke-width="1"/><text x="803" y="343" font-family="Verdana" font-size="5.5pt" fill="#8D2323" text-anchor="start">PD5</text><text x="794" y="339" font-family="Verdana" font-size="7pt" fill="#8D2323" text-anchor="end">13</text><circle cx="797" cy="340" r="3" stroke="#8D2323" fill="none" stroke-width="1" display="none"/><path d="M 800 343 L 803 340 L 800 337" fill="none" stroke="#8D2323" stroke-width="1" display="none"/></g><g><path d="M 920 300 v 20" fill="none" stroke="#8D2323" stroke-width="1"/><text x="923" y="323" font-family="Verdana" font-size="5.5pt" fill="#8D2323" text-anchor="end" transform="rotate(270,923,323)">PB1</text><text x="919" y="314" font-family="Verdana" font-size="7pt" fill="#8D2323" text-anchor="start" transform="rotate(270,919,314)">3</text><circle cx="920" cy="317" r="3" stroke="#8D2323" fill="none" stroke-width="1" display="none"/><path d="M 917 320 L 920 323 L 923 320" fill="none" stroke="#8D2323" stroke-width="1" display="none"/></g><g><path d="M 780 360 h 20" fill="none" stroke="#8D2323" stroke-width="1"/><text x="803" y="364" font-family="Verdana" font-size="5.5pt" fill="#8D2323" text-anchor="start">GND</text><text x="794" y="360" font-family="Verdana" font-size="7pt" fill="#8D2323" text-anchor="end">15</text><circle cx="797" cy="360" r="3" stroke="#8D2323" fill="none" stroke-width="1" display="none"/><path d="M 800 363 L 803 360 L 800 357" fill="none" stroke="#8D2323" stroke-width="1" display="none"/></g><g><path d="M 940 300 v 14" fill="none" stroke="#8D2323" stroke-width="1"/><text x="943" y="323" font-family="Verdana" font-size="5.5pt" fill="#8D2323" text-anchor="end" transform="rotate(270,943,323)">GND</text><text x="939" y="314" font-family="Verdana" font-size="7pt" fill="#8D2323" text-anchor="start" transform="rotate(270,939,314)">1</text><circle cx="940" cy="317" r="3" stroke="#8D2323" fill="none" stroke-width="1"/><path d="M 937 320 L 940 323 L 943 320" fill="none" stroke="#8D2323" stroke-width="1" display="none"/></g><g><path d="M 780 380 h 20" fill="none" stroke="#8D2323" stroke-width="1"/><text x="803" y="382" font-family="Verdana" font-size="5.5pt" fill="#8D2323" text-anchor="start">PD4</text><text x="795" y="380" font-family="Verdana" font-size="7pt" fill="#8D2323" text-anchor="end">17</text><circle cx="797" cy="380" r="3" stroke="#8D2323" fill="none" stroke-width="1" display="none"/><path d="M 800 383 L 803 380 L 800 377" fill="none" stroke="#8D2323" stroke-width="1" display="none"/></g><g><path d="M 830 420 v -20" fill="none" stroke="#8D2323" stroke-width="1"/><text x="833" y="397" font-family="Verdana" font-size="5.5pt" fill="#8D2323" text-anchor="start" transform="rotate(270,833,397)">PD6</text><text x="829" y="406" font-family="Verdana" font-size="7pt" fill="#8D2323" text-anchor="end" transform="rotate(270,829,406)">18</text><circle cx="830" cy="403" r="3" stroke="#8D2323" fill="none" stroke-width="1" display="none"/><path d="M 833 400 L 830 397 L 827 400" fill="none" stroke="#8D2323" stroke-width="1" display="none"/></g><g><path d="M 780 370 h 20" fill="none" stroke="#8D2323" stroke-width="1"/><text x="803" y="373" font-family="Verdana" font-size="5.5pt" fill="#8D2323" text-anchor="start">RST</text><text x="794" y="369" font-family="Verdana" font-size="7pt" fill="#8D2323" text-anchor="end">16</text><circle cx="797" cy="370" r="3" stroke="#8D2323" fill="none" stroke-width="1" display="none"/><path d="M 800 373 L 803 370 L 800 367" fill="none" stroke="#8D2323" stroke-width="1" display="none"/></g><g><path d="M 840 420 v -20" fill="none" stroke="#8D2323" stroke-width="1"/><text x="843" y="397" font-family="Verdana" font-size="5.5pt" fill="#8D2323" text-anchor="start" transform="rotate(270,843,397)">PD7</text><text x="839" y="406" font-family="Verdana" font-size="7pt" fill="#8D2323" text-anchor="end" transform="rotate(270,839,406)">19</text><circle cx="840" cy="403" r="3" stroke="#8D2323" fill="none" stroke-width="1" display="none"/><path d="M 843 400 L 840 397 L 837 400" fill="none" stroke="#8D2323" stroke-width="1" display="none"/></g><g><path d="M 840 300 v 20" fill="none" stroke="#8D2323" stroke-width="1"/><text x="843" y="323" font-family="Verdana" font-size="5.5pt" fill="#8D2323" text-anchor="end" transform="rotate(270,843,323)">PC6</text><text x="839" y="314" font-family="Verdana" font-size="7pt" fill="#8D2323" text-anchor="start" transform="rotate(270,839,314)">11</text><circle cx="840" cy="317" r="3" stroke="#8D2323" fill="none" stroke-width="1" display="none"/><path d="M 837 320 L 840 323 L 843 320" fill="none" stroke="#8D2323" stroke-width="1" display="none"/></g><g><path d="M 910 300 v 20" fill="none" stroke="#8D2323" stroke-width="1"/><text x="913" y="323" font-family="Verdana" font-size="5.5pt" fill="#8D2323" text-anchor="end" transform="rotate(270,913,323)">PB2</text><text x="909" y="314" font-family="Verdana" font-size="7pt" fill="#8D2323" text-anchor="start" transform="rotate(270,909,314)">4</text><circle cx="910" cy="317" r="3" stroke="#8D2323" fill="none" stroke-width="1" display="none"/><path d="M 907 320 L 910 323 L 913 320" fill="none" stroke="#8D2323" stroke-width="1" display="none"/></g><g><path d="M 900 300 v 20" fill="none" stroke="#8D2323" stroke-width="1"/><text x="903" y="323" font-family="Verdana" font-size="5.5pt" fill="#8D2323" text-anchor="end" transform="rotate(270,903,323)">PB3</text><text x="899" y="314" font-family="Verdana" font-size="7pt" fill="#8D2323" text-anchor="start" transform="rotate(270,899,314)">5</text><circle cx="900" cy="317" r="3" stroke="#8D2323" fill="none" stroke-width="1" display="none"/><path d="M 897 320 L 900 323 L 903 320" fill="none" stroke="#8D2323" stroke-width="1" display="none"/></g><g><path d="M 890 300 v 20" fill="none" stroke="#8D2323" stroke-width="1"/><text x="893" y="323" font-family="Verdana" font-size="5.5pt" fill="#8D2323" text-anchor="end" transform="rotate(270,893,323)">PB7</text><text x="889" y="314" font-family="Verdana" font-size="7pt" fill="#8D2323" text-anchor="start" transform="rotate(270,889,314)">6</text><circle cx="890" cy="317" r="3" stroke="#8D2323" fill="none" stroke-width="1" display="none"/><path d="M 887 320 L 890 323 L 893 320" fill="none" stroke="#8D2323" stroke-width="1" display="none"/></g><g><path d="M 880 300 v 20" fill="none" stroke="#8D2323" stroke-width="1"/><text x="883" y="323" font-family="Verdana" font-size="5.5pt" fill="#8D2323" text-anchor="end" transform="rotate(270,883,323)">PD0</text><text x="879" y="314" font-family="Verdana" font-size="7pt" fill="#8D2323" text-anchor="start" transform="rotate(270,879,314)">7</text><circle cx="880" cy="317" r="3" stroke="#8D2323" fill="none" stroke-width="1" display="none"/><path d="M 877 320 L 880 323 L 883 320" fill="none" stroke="#8D2323" stroke-width="1" display="none"/></g><g><path d="M 870 300 v 20" fill="none" stroke="#8D2323" stroke-width="1"/><text x="873" y="323" font-family="Verdana" font-size="5.5pt" fill="#8D2323" text-anchor="end" transform="rotate(270,873,323)">PD1</text><text x="869" y="314" font-family="Verdana" font-size="7pt" fill="#8D2323" text-anchor="start" transform="rotate(270,869,314)">8</text><circle cx="870" cy="317" r="3" stroke="#8D2323" fill="none" stroke-width="1" display="none"/><path d="M 867 320 L 870 323 L 873 320" fill="none" stroke="#8D2323" stroke-width="1" display="none"/></g><g><path d="M 860 300 v 20" fill="none" stroke="#8D2323" stroke-width="1"/><text x="863" y="323" font-family="Verdana" font-size="5.5pt" fill="#8D2323" text-anchor="end" transform="rotate(270,863,323)">PD2</text><text x="859" y="314" font-family="Verdana" font-size="7pt" fill="#8D2323" text-anchor="start" transform="rotate(270,859,314)">9</text><circle cx="860" cy="317" r="3" stroke="#8D2323" fill="none" stroke-width="1" display="none"/><path d="M 857 320 L 860 323 L 863 320" fill="none" stroke="#8D2323" stroke-width="1" display="none"/></g><g><path d="M 850 300 v 20" fill="none" stroke="#8D2323" stroke-width="1"/><text x="853" y="323" font-family="Verdana" font-size="5.5pt" fill="#8D2323" text-anchor="end" transform="rotate(270,853,323)">PD3</text><text x="849" y="314" font-family="Verdana" font-size="7pt" fill="#8D2323" text-anchor="start" transform="rotate(270,849,314)">10</text><circle cx="850" cy="317" r="3" stroke="#8D2323" fill="none" stroke-width="1" display="none"/><path d="M 847 320 L 850 323 L 853 320" fill="none" stroke="#8D2323" stroke-width="1" display="none"/></g><g><path d="M 830 300 v 20" fill="none" stroke="#8D2323" stroke-width="1"/><text x="833" y="323" font-family="Verdana" font-size="5.5pt" fill="#8D2323" text-anchor="end" transform="rotate(270,833,323)">PC7</text><text x="829" y="314" font-family="Verdana" font-size="7pt" fill="#8D2323" text-anchor="start" transform="rotate(270,829,314)">12</text><circle cx="830" cy="317" r="3" stroke="#8D2323" fill="none" stroke-width="1" display="none"/><path d="M 827 320 L 830 323 L 833 320" fill="none" stroke="#8D2323" stroke-width="1" display="none"/></g></g><g><g><text x="507" y="267" font-family="Arial" font-size="7pt" fill="#000080" text-anchor="start">Rotary switch</text></g><g><text x="508" y="258" font-family="Arial" font-size="7pt" fill="#000080" text-anchor="start">SW3</text></g><g><path d="M 500 220 v 10" fill="none" stroke="#8D2323" stroke-width="1"/><text x="503" y="233" font-family="Verdana" font-size="7pt" fill="#8D2323" text-anchor="end" transform="rotate(270,503,233)">A</text><text x="499" y="224" font-family="Verdana" font-size="7pt" fill="#8D2323" text-anchor="start" transform="rotate(270,499,224)">1</text><circle cx="500" cy="227" r="3" stroke="#8D2323" fill="none" stroke-width="1" display="none"/><path d="M 497 230 L 500 233 L 503 230" fill="none" stroke="#8D2323" stroke-width="1" display="none"/></g><g><path d="M 490 220 v 10" fill="none" stroke="#8D2323" stroke-width="1"/><text x="493" y="233" font-family="Verdana" font-size="7pt" fill="#8D2323" text-anchor="end" transform="rotate(270,493,233)">C</text><text x="489" y="224" font-family="Verdana" font-size="7pt" fill="#8D2323" text-anchor="start" transform="rotate(270,489,224)">2</text><circle cx="490" cy="227" r="3" stroke="#8D2323" fill="none" stroke-width="1" display="none"/><path d="M 487 230 L 490 233 L 493 230" fill="none" stroke="#8D2323" stroke-width="1" display="none"/></g><g><path d="M 480 220 v 10" fill="none" stroke="#8D2323" stroke-width="1"/><text x="483" y="233" font-family="Verdana" font-size="7pt" fill="#8D2323" text-anchor="end" transform="rotate(270,483,233)">B</text><text x="479" y="224" font-family="Verdana" font-size="7pt" fill="#8D2323" text-anchor="start" transform="rotate(270,479,224)">3</text><circle cx="480" cy="227" r="3" stroke="#8D2323" fill="none" stroke-width="1" display="none"/><path d="M 477 230 L 480 233 L 483 230" fill="none" stroke="#8D2323" stroke-width="1" display="none"/></g><g><path d="M 480 290 v -10" fill="none" stroke="#8D2323" stroke-width="1"/><text x="483" y="277" font-family="Verdana" font-size="7pt" fill="#8D2323" text-anchor="start" transform="rotate(270,483,277)">SW2</text><text x="479" y="286" font-family="Verdana" font-size="7pt" fill="#8D2323" text-anchor="end" transform="rotate(270,479,286)">4</text><circle cx="480" cy="283" r="3" stroke="#8D2323" fill="none" stroke-width="1" display="none"/><path d="M 483 280 L 480 277 L 477 280" fill="none" stroke="#8D2323" stroke-width="1" display="none"/></g><g><path d="M 500 290 v -10" fill="none" stroke="#8D2323" stroke-width="1"/><text x="503" y="277" font-family="Verdana" font-size="7pt" fill="#8D2323" text-anchor="start" transform="rotate(270,503,277)">SW1</text><text x="499" y="286" font-family="Verdana" font-size="7pt" fill="#8D2323" text-anchor="end" transform="rotate(270,499,286)">5</text><circle cx="500" cy="283" r="3" stroke="#8D2323" fill="none" stroke-width="1" display="none"/><path d="M 503 280 L 500 277 L 497 280" fill="none" stroke="#8D2323" stroke-width="1" display="none"/></g><polyline points="505 275 500 275" stroke="#8D2323" stroke-width="1" fill="none" stroke-linecap="round"/><polyline points="500 275 480 275" stroke="#8D2323" stroke-width="1" fill="none" stroke-linecap="round"/><polyline points="480 275 475 275" stroke="#8D2323" stroke-width="1" fill="none" stroke-linecap="round"/><polyline points="475 275 475 235" stroke="#8D2323" stroke-width="1" fill="none" stroke-linecap="round"/><polyline points="475 235 480 235" stroke="#8D2323" stroke-width="1" fill="none" stroke-linecap="round"/><polyline points="480 235 490 235" stroke="#8D2323" stroke-width="1" fill="none" stroke-linecap="round"/><polyline points="490 235 500 235" stroke="#8D2323" stroke-width="1" fill="none" stroke-linecap="round"/><polyline points="500 235 505 235" stroke="#8D2323" stroke-width="1" fill="none" stroke-linecap="round"/><polyline points="505 235 505 275" stroke="#8D2323" stroke-width="1" fill="none" stroke-linecap="round"/><polyline points="500 230 500 235" stroke="#8D2323" stroke-width="1" fill="none" stroke-linecap="round"/><polyline points="490 230 490 235" stroke="#8D2323" stroke-width="1" fill="none" stroke-linecap="round"/><polyline points="480 230 480 235" stroke="#8D2323" stroke-width="1" fill="none" stroke-linecap="round"/><polyline points="500 275 500 280" stroke="#8D2323" stroke-width="1" fill="none" stroke-linecap="round"/><polyline points="480 275 480 280" stroke="#8D2323" stroke-width="1" fill="none" stroke-linecap="round"/></g><ellipse cx="250" cy="440" rx="75" ry="75" stroke="#000000" stroke-width="1" fill="none"/><g eelibtitle="Header-Male-2.54_1x1" package-default="HDR-1X1/2.54"><g><text x="304.796875" y="462" font-family="Arial" font-size="7pt" fill="#000080" text-anchor="start">+</text></g><g><text x="305.796875" y="453" font-family="Arial" font-size="7pt" fill="#000080" text-anchor="start">P7</text></g><rect x="290" y="465" width="20" height="10" stroke="#880000" stroke-width="1" fill="#EFEFEF"/><g><path d="M 330 470 h -20" fill="none" stroke="#000000" stroke-width="1"/><text x="305" y="473" font-family="Verdana" font-size="7pt" fill="#000000" text-anchor="end">1</text><text x="315" y="469" font-family="Verdana" font-size="7pt" fill="#000000" text-anchor="start" display="none">1</text><circle cx="313" cy="470" r="3" stroke="#000000" fill="none" stroke-width="1" display="none"/><path d="M 310 467 L 307 470 L 310 473" fill="none" stroke="#000000" stroke-width="1" display="none"/></g></g><g eelibtitle="Header-Male-2.54_1x1" package-default="HDR-1X1/2.54"><g><text x="304.390625" y="432" font-family="Arial" font-size="7pt" fill="#000080" text-anchor="start">Data</text></g><g><text x="305.390625" y="423" font-family="Arial" font-size="7pt" fill="#000080" text-anchor="start">P8</text></g><rect x="290" y="435" width="20" height="10" stroke="#880000" stroke-width="1" fill="#EFEFEF"/><g><path d="M 330 440 h -20" fill="none" stroke="#000000" stroke-width="1"/><text x="305" y="443" font-family="Verdana" font-size="7pt" fill="#000000" text-anchor="end">1</text><text x="315" y="439" font-family="Verdana" font-size="7pt" fill="#000000" text-anchor="start" display="none">1</text><circle cx="313" cy="440" r="3" stroke="#000000" fill="none" stroke-width="1" display="none"/><path d="M 310 437 L 307 440 L 310 443" fill="none" stroke="#000000" stroke-width="1" display="none"/></g></g><g eelibtitle="Header-Male-2.54_1x1" package-default="HDR-1X1/2.54"><g><text x="304.390625" y="402" font-family="Arial" font-size="7pt" fill="#000080" text-anchor="start">-</text></g><g><text x="305.390625" y="393" font-family="Arial" font-size="7pt" fill="#000080" text-anchor="start">P9</text></g><rect x="290" y="405" width="20" height="10" stroke="#880000" stroke-width="1" fill="#EFEFEF"/><g><path d="M 330 410 h -20" fill="none" stroke="#000000" stroke-width="1"/><text x="305" y="413" font-family="Verdana" font-size="7pt" fill="#000000" text-anchor="end">1</text><text x="315" y="409" font-family="Verdana" font-size="7pt" fill="#000000" text-anchor="start" display="none">1</text><circle cx="313" cy="410" r="3" stroke="#000000" fill="none" stroke-width="1" display="none"/><path d="M 310 407 L 307 410 L 310 413" fill="none" stroke="#000000" stroke-width="1" display="none"/></g></g><g eelibtitle="Header-Male-2.54_1x1" package-default="HDR-1X1/2.54"><g><text x="213.390625" y="477" font-family="Arial" font-size="7pt" fill="#000080" text-anchor="start">+</text></g><g><text x="214.390625" y="468" font-family="Arial" font-size="7pt" fill="#000080" text-anchor="start">P10</text></g><rect x="215" y="480" width="10" height="20" stroke="#880000" stroke-width="1" fill="#EFEFEF"/><g><path d="M 220 520 v -20" fill="none" stroke="#000000" stroke-width="1"/><text x="223" y="495" font-family="Verdana" font-size="7pt" fill="#000000" text-anchor="start" transform="rotate(270,223,495)">1</text><text x="219" y="505" font-family="Verdana" font-size="7pt" fill="#000000" text-anchor="end" display="none" transform="rotate(270,219,505)">1</text><circle cx="220" cy="503" r="3" stroke="#000000" fill="none" stroke-width="1" display="none"/><path d="M 223 500 L 220 497 L 217 500" fill="none" stroke="#000000" stroke-width="1" display="none"/></g></g><g eelibtitle="Header-Male-2.54_1x1" package-default="HDR-1X1/2.54"><g><text x="243.390625" y="477" font-family="Arial" font-size="7pt" fill="#000080" text-anchor="start">Data</text></g><g><text x="244.390625" y="468" font-family="Arial" font-size="7pt" fill="#000080" text-anchor="start">P11</text></g><rect x="245" y="480" width="10" height="20" stroke="#880000" stroke-width="1" fill="#EFEFEF"/><g><path d="M 250 520 v -20" fill="none" stroke="#000000" stroke-width="1"/><text x="253" y="495" font-family="Verdana" font-size="7pt" fill="#000000" text-anchor="start" transform="rotate(270,253,495)">1</text><text x="249" y="505" font-family="Verdana" font-size="7pt" fill="#000000" text-anchor="end" display="none" transform="rotate(270,249,505)">1</text><circle cx="250" cy="503" r="3" stroke="#000000" fill="none" stroke-width="1" display="none"/><path d="M 253 500 L 250 497 L 247 500" fill="none" stroke="#000000" stroke-width="1" display="none"/></g></g><g eelibtitle="Header-Male-2.54_1x1" package-default="HDR-1X1/2.54"><g><text x="273.390625" y="477" font-family="Arial" font-size="7pt" fill="#000080" text-anchor="start">-</text></g><g><text x="274.390625" y="468" font-family="Arial" font-size="7pt" fill="#000080" text-anchor="start">P12</text></g><rect x="275" y="480" width="10" height="20" stroke="#880000" stroke-width="1" fill="#EFEFEF"/><g><path d="M 280 520 v -20" fill="none" stroke="#000000" stroke-width="1"/><text x="283" y="495" font-family="Verdana" font-size="7pt" fill="#000000" text-anchor="start" transform="rotate(270,283,495)">1</text><text x="279" y="505" font-family="Verdana" font-size="7pt" fill="#000000" text-anchor="end" display="none" transform="rotate(270,279,505)">1</text><circle cx="280" cy="503" r="3" stroke="#000000" fill="none" stroke-width="1" display="none"/><path d="M 283 500 L 280 497 L 277 500" fill="none" stroke="#000000" stroke-width="1" display="none"/></g></g><g><text x="201" y="402" font-family="Verdana" font-size="9pt" fill="#0000FF" text-anchor="start" type="comment"><tspan x="201" dy="0" xml:space="preserve">Neopixel ring</tspan><tspan x="201" dy="1em" xml:space="preserve"> </tspan><tspan x="201" dy="1em" xml:space="preserve">( 16 pin )</tspan><tspan x="201" dy="1em" xml:space="preserve"> </tspan><tspan x="201" dy="1em" xml:space="preserve">facing up</tspan></text></g><g><g><text x="507" y="557" font-family="Arial" font-size="7pt" fill="#000080" text-anchor="start">Rotary switch</text></g><g><text x="508" y="548" font-family="Arial" font-size="7pt" fill="#000080" text-anchor="start">SW1</text></g><g><path d="M 500 510 v 10" fill="none" stroke="#8D2323" stroke-width="1"/><text x="503" y="523" font-family="Verdana" font-size="7pt" fill="#8D2323" text-anchor="end" transform="rotate(270,503,523)">A</text><text x="499" y="514" font-family="Verdana" font-size="7pt" fill="#8D2323" text-anchor="start" transform="rotate(270,499,514)">1</text><circle cx="500" cy="517" r="3" stroke="#8D2323" fill="none" stroke-width="1" display="none"/><path d="M 497 520 L 500 523 L 503 520" fill="none" stroke="#8D2323" stroke-width="1" display="none"/></g><g><path d="M 490 510 v 10" fill="none" stroke="#8D2323" stroke-width="1"/><text x="493" y="523" font-family="Verdana" font-size="7pt" fill="#8D2323" text-anchor="end" transform="rotate(270,493,523)">C</text><text x="489" y="514" font-family="Verdana" font-size="7pt" fill="#8D2323" text-anchor="start" transform="rotate(270,489,514)">2</text><circle cx="490" cy="517" r="3" stroke="#8D2323" fill="none" stroke-width="1" display="none"/><path d="M 487 520 L 490 523 L 493 520" fill="none" stroke="#8D2323" stroke-width="1" display="none"/></g><g><path d="M 480 510 v 10" fill="none" stroke="#8D2323" stroke-width="1"/><text x="483" y="523" font-family="Verdana" font-size="7pt" fill="#8D2323" text-anchor="end" transform="rotate(270,483,523)">B</text><text x="479" y="514" font-family="Verdana" font-size="7pt" fill="#8D2323" text-anchor="start" transform="rotate(270,479,514)">3</text><circle cx="480" cy="517" r="3" stroke="#8D2323" fill="none" stroke-width="1" display="none"/><path d="M 477 520 L 480 523 L 483 520" fill="none" stroke="#8D2323" stroke-width="1" display="none"/></g><g><path d="M 480 580 v -10" fill="none" stroke="#8D2323" stroke-width="1"/><text x="483" y="567" font-family="Verdana" font-size="7pt" fill="#8D2323" text-anchor="start" transform="rotate(270,483,567)">SW2</text><text x="479" y="576" font-family="Verdana" font-size="7pt" fill="#8D2323" text-anchor="end" transform="rotate(270,479,576)">4</text><circle cx="480" cy="573" r="3" stroke="#8D2323" fill="none" stroke-width="1" display="none"/><path d="M 483 570 L 480 567 L 477 570" fill="none" stroke="#8D2323" stroke-width="1" display="none"/></g><g><path d="M 500 580 v -10" fill="none" stroke="#8D2323" stroke-width="1"/><text x="503" y="567" font-family="Verdana" font-size="7pt" fill="#8D2323" text-anchor="start" transform="rotate(270,503,567)">SW1</text><text x="499" y="576" font-family="Verdana" font-size="7pt" fill="#8D2323" text-anchor="end" transform="rotate(270,499,576)">5</text><circle cx="500" cy="573" r="3" stroke="#8D2323" fill="none" stroke-width="1" display="none"/><path d="M 503 570 L 500 567 L 497 570" fill="none" stroke="#8D2323" stroke-width="1" display="none"/></g><polyline points="505 565 500 565" stroke="#8D2323" stroke-width="1" fill="none" stroke-linecap="round"/><polyline points="500 565 480 565" stroke="#8D2323" stroke-width="1" fill="none" stroke-linecap="round"/><polyline points="480 565 475 565" stroke="#8D2323" stroke-width="1" fill="none" stroke-linecap="round"/><polyline points="475 565 475 525" stroke="#8D2323" stroke-width="1" fill="none" stroke-linecap="round"/><polyline points="475 525 480 525" stroke="#8D2323" stroke-width="1" fill="none" stroke-linecap="round"/><polyline points="480 525 490 525" stroke="#8D2323" stroke-width="1" fill="none" stroke-linecap="round"/><polyline points="490 525 500 525" stroke="#8D2323" stroke-width="1" fill="none" stroke-linecap="round"/><polyline points="500 525 505 525" stroke="#8D2323" stroke-width="1" fill="none" stroke-linecap="round"/><polyline points="505 525 505 565" stroke="#8D2323" stroke-width="1" fill="none" stroke-linecap="round"/><polyline points="500 520 500 525" stroke="#8D2323" stroke-width="1" fill="none" stroke-linecap="round"/><polyline points="490 520 490 525" stroke="#8D2323" stroke-width="1" fill="none" stroke-linecap="round"/><polyline points="480 520 480 525" stroke="#8D2323" stroke-width="1" fill="none" stroke-linecap="round"/><polyline points="500 565 500 570" stroke="#8D2323" stroke-width="1" fill="none" stroke-linecap="round"/><polyline points="480 565 480 570" stroke="#8D2323" stroke-width="1" fill="none" stroke-linecap="round"/></g><polyline points="940 420 940 630 500 630 500 580" stroke="#008800" stroke-width="1" fill="none"/><polyline points="220 520 220 630 500 630" stroke="#008800" stroke-width="1" fill="none"/><g><circle cx="500" cy="630" r="2.5" fill="#CC0000" stroke-width="1"/></g><polyline points="500 290 500 450 600 450 600 630" stroke="#008800" stroke-width="1" fill="none"/><g><circle cx="600" cy="630" r="2.5" fill="#CC0000" stroke-width="1"/></g><polyline points="250 520 250 610 840 610 840 420" stroke="#008800" stroke-width="1" fill="none"/><polyline points="480 580 480 590 910 590 910 420" stroke="#008800" stroke-width="1" fill="none"/><polyline points="900 420 900 460 480 460 480 290" stroke="#008800" stroke-width="1" fill="none"/><polyline points="330 440 360 440 360 310 250 310 250 230" stroke="#008800" stroke-width="1" fill="none"/><polyline points="280 230 280 320 340 320 340 410 330 410" stroke="#008800" stroke-width="1" fill="none"/><polyline points="220 230 220 300 380 300 380 470 330 470" stroke="#008800" stroke-width="1" fill="none"/><polyline points="860 300 860 160 480 160 480 220" stroke="#008800" stroke-width="1" fill="none"/><polyline points="850 300 850 170 500 170 500 220" stroke="#008800" stroke-width="1" fill="none"/><polyline points="480 510 480 490 440 490 440 110 880 110 880 300" stroke="#008800" stroke-width="1" fill="none"/><polyline points="870 300 870 120 450 120 450 480 500 480 500 510" stroke="#008800" stroke-width="1" fill="none"/><polyline points="780 360 410 360 410 570 280 570 280 520" stroke="#008800" stroke-width="1" fill="none"/><polyline points="490 510 490 360" stroke="#008800" stroke-width="1" fill="none"/><g><circle cx="490" cy="360" r="2.5" fill="#CC0000" stroke-width="1"/></g><polyline points="490 220 490 180 590 180 590 360" stroke="#008800" stroke-width="1" fill="none"/><g><circle cx="590" cy="360" r="2.5" fill="#CC0000" stroke-width="1"/></g></g></svg>
